<?xml version="1.0" encoding="utf-8"?>
<!-- Generator: Adobe Illustrator 19.0.0, SVG Export Plug-In . SVG Version: 6.00 Build 0)  -->
<svg version="1.1" id="Layer_1" xmlns="http://www.w3.org/2000/svg" xmlns:xlink="http://www.w3.org/1999/xlink" x="0px" y="0px"
	 viewBox="0 0 181.3 55" style="enable-background:new 0 0 181.3 55;" xml:space="preserve">
<style type="text/css">
	.st0{fill:#2A84FF;}
	.st1{fill:#FFFFFF;}
</style>
<g id="XMLID_2_">
	<g id="XMLID_1_">
		<path id="XMLID_5_" class="st0" d="M28,52.5c-0.8-0.1-5.1-3-9.7-7.9c-5.1-5.5-5.6-16.2-1-21.2c1.2-1.4,2.8-2.5,4.7-3
			c-1.3,1.5-2,3.4-2,5.4c0,4.5,3.7,8.2,8.2,8.2c3.2,0,6-1.8,7.3-4.6c1.5,2.3,3.6,3.6,6.1,3.6c1.6,0,3.1-0.5,4.4-1.3
			C42.2,43,29.2,52.2,28,52.5"/>
		<path id="XMLID_4_" class="st1" d="M12.3,34.4c0-0.2,0-0.3,0-0.5c0,0,0,0,0-0.1C11.9,21,20.5,17,27,18.1c5.2,0.8,7.8,4.3,8.5,6.9
			c0.8,2.9,2.6,5.9,5.9,5.9c3.2,0,5.8-2.5,5.9-5.7c-0.2-7.8-5-14.5-11.8-17.4l0,0c-3.5-1.5-6-3-6-3l0,0c-1.4-0.9-3.3-1.9-5.4-2.2
			C22,2.2,23.4,3,24.4,3.7c1,0.8,1.6,2.6-2,3.4c0,0,0,0,0,0C14.4,9.6,8.6,17,8.6,25.7c0,0.5,0,0.9,0.1,1.4c0,0,0,0,0,0
			c0,0.1,0,0.1,0,0.2c0,0.1,0,0.2,0,0.3c0.7,6.6,0.2,6.8-3.4,8.7c-3.7,2-2.9,2,1.7,2c1.3,0,2.3,0,3.5,1.7c1.9,2.8,3.8,4.6,2.9,1.3
			C12.6,38.5,12.3,36.1,12.3,34.4"/>
	</g>
	<g id="XMLID_25_">
		<path id="XMLID_48_" class="st1" d="M67.7,36.1h-2.8l-0.3-1.7c-0.9,1.1-2.4,2-4.5,2c-3,0-4.2-2.3-4.2-6.3c0-4.7,1.5-6.1,4.5-6.1
			c1.4,0,2.7,0.3,3.8,1c-0.1-0.8-0.1-1.6-0.1-2.5v-3.2h3.5V36.1z M64.2,27.1c-0.8-0.2-1.5-0.5-2.5-0.5c-1.5,0-2.1,0.5-2.1,3.5
			c0,2.8,0.6,3.4,2,3.4c1,0,1.6-0.3,2.6-1V27.1z"/>
		<path id="XMLID_45_" class="st1" d="M72.5,19.1c0.7,0,1,0.4,1,1v1.3c0,0.7-0.3,1-1,1h-1.6c-0.7,0-1-0.3-1-1v-1.3c0-0.7,0.3-1,1-1
			H72.5z M70,24.3h3.5v11.8H70V24.3z"/>
		<path id="XMLID_18_" class="st1" d="M83.7,35.3c-0.2,0.5-0.6,0.8-1.1,0.8h-3.1c-0.5,0-1-0.3-1.1-0.8l-3.9-10.9h3.7l2.1,7.4
			c0.2,0.7,0.4,1.4,0.5,2.1h0.3l0.5-2.1l2.1-7.4h3.7L83.7,35.3z"/>
		<path id="XMLID_41_" class="st1" d="M91.5,31.4c0.2,1.8,1,2.2,2.8,2.2c1.1,0,2.8-0.1,4.4-0.3l0.3,2.2c-1.4,0.7-3.5,0.9-5.1,0.9
			c-4.5,0-6.1-1.8-6.1-6.1c0-4.6,1.7-6.2,6-6.2c4,0,5.6,1.4,5.6,4.1c0,2.1-1,3.3-3.6,3.3H91.5z M94.8,29.3c1,0,1.1-0.5,1.1-1.2
			c0-1.1-0.5-1.5-2-1.5c-1.8,0-2.3,0.5-2.4,2.7H94.8z"/>
		<path id="XMLID_38_" class="st0" d="M100.8,27.7c1.2-0.2,2.7-0.4,4.1-0.4c1.8,0,2.7,0.7,2.7,2.6v6.2h-0.9l-0.1-1.5
			c-0.7,0.7-2.2,1.6-3.8,1.6c-1.5,0-2.4-0.8-2.4-2.3v-1c0-1.3,0.8-2.1,2.3-2.1h3.8v-0.9c0-1.1-0.4-1.7-1.8-1.7c-1,0-2.5,0.1-3.8,0.2
			L100.8,27.7z M101.6,33.8c0,1,0.5,1.4,1.5,1.4c1,0,2.4-0.5,3.5-1.5v-2.1h-3.7c-0.9,0-1.3,0.5-1.3,1.3V33.8z"/>
		<path id="XMLID_13_" class="st0" d="M111.1,28.9c1.4-1,2.7-1.6,4-1.6c1.5,0,2.3,0.8,2.3,2.4v6.5h-1.1v-6.2c0-1.2-0.4-1.7-1.5-1.7
			c-1.1,0-2.1,0.5-3.6,1.5v6.3H110v-8.6h0.9L111.1,28.9z"/>
		<path id="XMLID_34_" class="st0" d="M125.8,34.8c-1,0.9-2.2,1.5-3.4,1.5c-2.2,0-3.1-1.4-3.1-4.5c0-3.3,1-4.5,3.2-4.5
			c1.1,0,2.2,0.3,3.2,0.8c-0.1-0.6-0.1-1.1-0.1-1.7v-2.7h1.1v12.4H126L125.8,34.8z M125.7,28.9c-1.2-0.4-2-0.6-2.9-0.6
			c-1.7,0-2.3,0.8-2.3,3.5c0,2.7,0.6,3.5,2.2,3.5c1,0,1.7-0.4,3-1.4V28.9z"/>
		<path id="XMLID_10_" class="st1" d="M131.6,30.9c-2.2-0.6-2.9-1.7-2.9-3.6c0-2.5,1.3-3.4,5-3.4c1.7,0,4,0.2,5.4,0.5l-0.2,2.3
			c-1.5,0-3.1,0-4.5,0c-1.8,0-2.3,0-2.3,0.8c0,0.7,0.4,0.7,1.5,1l3,0.8c2,0.6,2.9,1.4,2.9,3.4c0,2.9-1.6,3.6-5.4,3.6
			c-0.9,0-3,0-5.3-0.4l0.2-2.3c0.9,0,2.5,0,4.1,0c2.4,0,3-0.1,3-0.9c0-0.7-0.5-0.8-1.7-1.1L131.6,30.9z"/>
		<path id="XMLID_30_" class="st1" d="M144.4,31.4c0.2,1.8,1,2.2,2.8,2.2c1.1,0,2.8-0.1,4.4-0.3l0.3,2.2c-1.4,0.7-3.5,0.9-5.1,0.9
			c-4.5,0-6.1-1.8-6.1-6.1c0-4.6,1.7-6.2,6-6.2c4,0,5.6,1.4,5.6,4.1c0,2.1-1,3.3-3.6,3.3H144.4z M147.6,29.3c1,0,1.1-0.5,1.1-1.2
			c0-1.1-0.5-1.5-2-1.5c-1.8,0-2.3,0.5-2.4,2.7H147.6z"/>
		<path id="XMLID_27_" class="st1" d="M157,31.4c0.2,1.8,1,2.2,2.8,2.2c1.1,0,2.8-0.1,4.4-0.3l0.3,2.2c-1.4,0.7-3.5,0.9-5.1,0.9
			c-4.5,0-6.1-1.8-6.1-6.1c0-4.6,1.7-6.2,6-6.2c4,0,5.6,1.4,5.6,4.1c0,2.1-1,3.3-3.6,3.3H157z M160.3,29.3c1,0,1.1-0.5,1.1-1.2
			c0-1.1-0.5-1.5-2-1.5c-1.8,0-2.3,0.5-2.4,2.7H160.3z"/>
		<path id="XMLID_3_" class="st1" d="M169.7,30.6c0.1,0.6,0.2,1.2,0.2,1.8v3.7h-3.5V19.4h3.5v6.9c0,0.7,0,1.5-0.2,2.1h1.1l2.9-4.1h4
			l-3.1,4.1c-0.3,0.5-0.8,0.9-1.1,1.1v0c0.3,0.2,0.8,0.8,1.1,1.3l3.5,5.2h-4l-3.3-5.5H169.7z"/>
	</g>
</g>
</svg>
