<?xml version="1.0" encoding="utf-8"?>
<!-- Generator: Adobe Illustrator 17.0.0, SVG Export Plug-In . SVG Version: 6.00 Build 0)  -->
<!DOCTYPE svg PUBLIC "-//W3C//DTD SVG 1.1//EN" "http://www.w3.org/Graphics/SVG/1.1/DTD/svg11.dtd">
<svg version="1.1" id="Layer_1" xmlns="http://www.w3.org/2000/svg" xmlns:xlink="http://www.w3.org/1999/xlink" x="0px" y="0px"
	 width="1080px" height="1080px" viewBox="840 0 1080 1080" enable-background="new 840 0 1080 1080" xml:space="preserve">
<path d="M985.372,840.973c-90.108-111.982-106.751-340.462-40.893-526.86c79.647-225.627,403.466-270.8,544.929-232.284
	c210.887,57.298,323.344,273.891,358.531,417.018c43.033,175.224-101.521,431.283-307.89,492.861S1075.48,952.955,985.372,840.973z
	 M1305.15,715.915c77.745,37.089,188.776-0.238,223.012-63.718c27.817-51.83,52.543-145.98,5.468-219.446
	c-31.621-49.215-139.799-122.443-223.488-77.032c-69.424,37.803-125.533,109.842-128.862,167.14
	C1177.952,580.159,1227.642,678.826,1305.15,715.915z"/>
</svg>
