<?xml version="1.0" encoding="utf-8"?>
<!-- Generator: Adobe Illustrator 19.0.0, SVG Export Plug-In . SVG Version: 6.00 Build 0)  -->
<svg version="1.1" id="Layer_1" xmlns="http://www.w3.org/2000/svg" xmlns:xlink="http://www.w3.org/1999/xlink" x="0px" y="0px"
	 viewBox="-934 516.3 122.5 50" style="enable-background:new -934 516.3 122.5 50;" xml:space="preserve">
<style type="text/css">
	.st0{fill:#2B3133;}
</style>
<path id="XMLID_1_" class="st0" d="M-915.8,541.7c1.5-1.4,2.9-2.1,4.6-2.1c1.6,0,2.8,0.8,3.1,1.9c1.5-1.3,2.8-1.9,4.4-1.9
	c2.1,0,3.4,1.3,3.4,3.4v9h-3.6v-7.8c0-1-0.3-1.4-1.3-1.4c-0.8,0-1.4,0.3-2.8,1v8.3h-3.4v-7.9c0-1-0.4-1.4-1.3-1.4
	c-0.8,0-1.3,0.3-2.8,1v8.3h-3.5V540h2.9L-915.8,541.7z M-894.7,547.3c0.3,1.9,1,2.1,2.9,2.1c1.1,0,2.9-0.1,4.5-0.3l0.4,2.3
	c-1.4,0.8-3.6,1-5.3,1c-4.6,0-6.3-1.9-6.3-6.3c0-4.8,1.8-6.4,6.1-6.4c4.1,0,5.6,1.5,5.8,4.1c0,2.1-1,3.4-3.6,3.4
	C-890.3,547.3-894.7,547.3-894.7,547.3z M-891.3,545.1c1,0,1.1-0.5,1.1-1.3c0-1.1-0.5-1.5-2.1-1.5c-1.9,0-2.5,0.5-2.5,2.8H-891.3
	L-891.3,545.1z M-925,544.9c-0.3-1.9-1-2.1-2.9-2.1c-1.1,0-2.9,0.1-4.5,0.3l-0.4-2.3c1.4-0.8,3.6-1,5.3-1c4.6,0,6.3,1.9,6.3,6.3
	c0,4.8-1.8,6.4-6.1,6.4c-4.1,0-5.6-1.4-5.6-4.1c0-2.1,1-3.4,3.6-3.4H-925L-925,544.9z M-928.2,547c-1,0-1.1,0.5-1.1,1.3
	c0,1.1,0.5,1.5,2.1,1.5c1.9,0,2.5-0.5,2.5-2.8H-928.2L-928.2,547z M-862.7,544.9c-0.3-1.9-1-2.1-2.9-2.1c-1.1,0-2.9,0.1-4.5,0.3
	l-0.4-2.3c1.4-0.8,3.6-1,5.3-1c4.6,0,6.3,1.9,6.3,6.3c0,4.8-1.8,6.4-6.1,6.4c-4.1,0-5.6-1.5-5.8-4.1c0-2.1,1-3.4,3.6-3.4
	C-867.1,544.9-862.7,544.9-862.7,544.9z M-866.1,547c-1,0-1.1,0.5-1.1,1.3c0,1.1,0.5,1.5,2.1,1.5c1.9,0,2.5-0.5,2.5-2.8H-866.1
	L-866.1,547z M-880.9,538.9c0,1-0.1,1.9-0.4,2.9c1.1-1.3,2.8-1.9,4.3-1.9c3.1,0,4.5,1.8,4.5,6.3c0,3.6-1,6.5-5.9,6.5
	c-1.6,0-4.6-0.3-6.1-1V535h3.6C-880.9,535-880.9,538.9-880.9,538.9z M-880.9,549.5c0.8,0.1,1.8,0.3,2.5,0.3c1.6,0,2.3-0.9,2.3-3.8
	c0-2.6-0.4-3.4-2.1-3.4c-1,0-1.6,0.4-2.5,1L-880.9,549.5L-880.9,549.5z"/>
<g>
	<path class="st0" d="M-849.1,548.4c-2.1-2.6-2.5-8-1-12.5c1.9-5.4,9.5-6.4,12.9-5.5c5,1.3,7.6,6.5,8.5,9.8c1,4.2-2.4,10.2-7.3,11.7
		C-840.9,553.4-846.9,551.1-849.1,548.4z M-842.1,546.7c2.4,1.1,5.8,0,6.9-1.9c0.8-1.6,1.6-4.5,0.2-6.8c-1-1.5-4.4-3.8-6.9-2.3
		c-2.1,1.1-3.9,3.3-4,5.2C-845.9,542.6-844.4,545.6-842.1,546.7z"/>
	<path class="st0" d="M-828.7,534.7c-0.8-1-1-3.1-0.4-4.9c0.7-2.1,3.8-2.5,5.1-2.1c1.9,0.5,3,2.5,3.3,3.9c0.4,1.6-0.9,4.1-2.8,4.6
		C-825.4,536.6-827.9,535.7-828.7,534.7z M-825.8,533.4c0.7,0.3,1.7,0,2-0.6c0.3-0.5,0.5-1.3,0-2c-0.3-0.5-1.3-1.1-2.1-0.7
		c-0.6,0.3-1.2,1-1.2,1.5C-826.9,532.2-826.5,533.1-825.8,533.4z"/>
</g>
</svg>
