<?xml version="1.0" encoding="utf-8"?>
<!-- Generator: Adobe Illustrator 19.0.0, SVG Export Plug-In . SVG Version: 6.00 Build 0)  -->
<svg version="1.1" id="Layer_1" xmlns="http://www.w3.org/2000/svg" xmlns:xlink="http://www.w3.org/1999/xlink" x="0px" y="0px"
	 viewBox="0 0 1920 1080" style="enable-background:new 0 0 1920 1080;" xml:space="preserve">
<style type="text/css">
	.st0{fill:#FBFBFB;}
</style>
<path id="XMLID_1_" class="st0" d="M0,0v1080h1920V0H0z M1348.5,901.5c-144.7,43.1-325.7-27.1-388.8-105.6
	c-63.1-78.5-74.8-238.5-28.7-369.3c55.8-158.2,282.8-189.9,382-162.9c147.8,40.2,226.6,192,251.2,292.3
	C1594.4,678.9,1493.2,858.4,1348.5,901.5z M1717.9,428.5c-57,17-128.3-10.7-153.2-41.6c-24.9-30.9-29.5-94-11.3-145.5
	c22-62.3,111.4-74.8,150.5-64.2c58.3,15.8,89.3,75.7,99,115.2C1814.8,340.8,1774.9,411.5,1717.9,428.5z M1716.1,274.1
	c13,20.3,6.2,46.3-1.5,60.6c-9.4,17.5-40.2,27.8-61.6,17.6c-21.4-10.2-35.2-37.5-34.2-53.3c0.9-15.8,16.4-35.7,35.6-46.1
	C1677.5,240.3,1707.3,260.5,1716.1,274.1z M1376.8,487.3c43,67,20.5,153-4.9,200.3c-31.2,57.9-132.8,91.9-203.6,58.1
	c-70.8-33.8-116.2-123.9-113.2-176.2c3-52.3,54.2-118.1,117.6-152.4C1249.3,375.5,1347.9,442.4,1376.8,487.3z"/>
</svg>
